<svg width="103" height="22" viewBox="0 0 103 22" fill="none" xmlns="http://www.w3.org/2000/svg">
<path d="M7.704 8.744C8.264 8.808 8.784 8.968 9.264 9.224C9.744 9.464 10.16 9.768 10.512 10.136C10.88 10.488 11.16 10.896 11.352 11.36C11.56 11.824 11.664 12.32 11.664 12.848C11.664 13.424 11.536 13.968 11.28 14.48C11.04 14.976 10.712 15.416 10.296 15.8C9.88 16.168 9.384 16.464 8.808 16.688C8.248 16.896 7.648 17 7.008 17H0.528V16.904C0.688 16.904 0.832 16.864 0.96 16.784C1.056 16.704 1.144 16.576 1.224 16.4C1.32 16.224 1.368 15.976 1.368 15.656V12.224C1.368 11.424 1.504 10.816 1.776 10.4C2.048 9.968 2.36 9.64 2.712 9.416L3.024 9.248C3.376 9.088 3.744 9 4.128 8.984C3.776 8.968 3.408 8.88 3.024 8.72L2.712 8.552C2.36 8.328 2.048 8 1.776 7.568C1.504 7.136 1.368 6.52 1.368 5.72V2.288C1.368 1.952 1.32 1.696 1.224 1.52C1.144 1.344 1.056 1.216 0.96 1.136C0.832 1.056 0.688 1.016 0.528 1.016V0.943999C1.6 0.943999 2.56 0.935999 3.408 0.92H6.36C6.92 0.92 7.44 1.024 7.92 1.232C8.416 1.44 8.848 1.728 9.216 2.096C9.584 2.464 9.872 2.896 10.08 3.392C10.288 3.872 10.392 4.392 10.392 4.952C10.392 5.816 10.144 6.592 9.648 7.28C9.168 7.968 8.52 8.456 7.704 8.744ZM2.712 5.912C2.712 6.072 2.728 6.312 2.76 6.632C2.808 6.952 2.88 7.264 2.976 7.568C3.088 7.872 3.248 8.144 3.456 8.384C3.68 8.608 3.976 8.72 4.344 8.72H6.552C6.824 8.688 7.056 8.632 7.248 8.552C7.664 8.408 8.016 8.176 8.304 7.856C8.592 7.536 8.808 7.176 8.952 6.776C9.112 6.36 9.184 5.912 9.168 5.432C9.168 4.952 9.08 4.472 8.904 3.992C8.648 3.304 8.216 2.72 7.608 2.24C7.016 1.744 6.184 1.496 5.112 1.496H2.712V5.912ZM8.04 16.568C8.504 16.424 8.904 16.192 9.24 15.872C9.576 15.536 9.832 15.16 10.008 14.744C10.184 14.312 10.272 13.848 10.272 13.352C10.272 12.856 10.168 12.36 9.96 11.864C9.64 11.128 9.168 10.528 8.544 10.064C7.936 9.6 7.272 9.328 6.552 9.248H4.344C3.992 9.248 3.704 9.36 3.48 9.584C3.272 9.808 3.112 10.072 3 10.376C2.888 10.68 2.808 10.992 2.76 11.312C2.728 11.616 2.712 11.856 2.712 12.032V15.656C2.712 15.688 2.728 15.768 2.76 15.896C2.792 16.008 2.864 16.128 2.976 16.256C3.088 16.384 3.256 16.504 3.48 16.616C3.704 16.712 4.008 16.76 4.392 16.76H7.008C7.184 16.744 7.352 16.728 7.512 16.712C7.688 16.68 7.864 16.632 8.04 16.568ZM34.2212 15.992C34.1892 16.184 34.1172 16.352 34.0052 16.496C33.9252 16.624 33.7892 16.744 33.5972 16.856C33.4052 16.952 33.1492 17 32.8292 17C32.5732 17 32.3572 16.944 32.1812 16.832C32.0212 16.72 31.8852 16.576 31.7732 16.4C31.6772 16.224 31.6052 16.024 31.5572 15.8C31.5092 15.576 31.4852 15.36 31.4852 15.152V12.416C31.3572 12.864 31.1652 13.368 30.9092 13.928C30.6532 14.488 30.3412 15.016 29.9732 15.512C29.6052 15.992 29.1732 16.4 28.6772 16.736C28.1972 17.072 27.6612 17.24 27.0692 17.24C26.3652 17.24 25.8052 17.136 25.3892 16.928C24.9732 16.704 24.6532 16.448 24.4292 16.16C24.2212 15.856 24.0852 15.56 24.0212 15.272C23.9732 14.968 23.9492 14.736 23.9492 14.576C23.9492 14.448 23.9732 14.232 24.0212 13.928C24.0692 13.624 24.1972 13.288 24.4052 12.92C24.6292 12.552 24.9732 12.176 25.4372 11.792C25.9172 11.408 26.5732 11.088 27.4052 10.832C27.7732 10.72 28.1892 10.6 28.6532 10.472C29.1332 10.328 29.5812 10.16 29.9972 9.968C30.4132 9.76 30.7572 9.512 31.0292 9.224C31.3172 8.92 31.4612 8.552 31.4612 8.12C31.4612 7.56 31.2532 7.072 30.8372 6.656C30.4372 6.224 29.8132 6.008 28.9652 6.008C28.1492 6.008 27.4532 6.16 26.8772 6.464C26.3172 6.768 25.8372 7.176 25.4372 7.688C25.0372 8.184 24.6932 8.76 24.4052 9.416C24.1172 10.056 23.8372 10.72 23.5652 11.408C23.3092 12.08 23.0372 12.752 22.7492 13.424C22.4772 14.08 22.1412 14.68 21.7412 15.224H21.7652L21.6692 15.32C21.6692 15.336 21.6612 15.352 21.6452 15.368C21.1172 16.072 20.5412 16.552 19.9172 16.808C19.2932 17.064 18.5412 17.192 17.6612 17.192C16.9732 17.192 16.3252 17.04 15.7172 16.736C15.1252 16.416 14.6052 15.992 14.1572 15.464C13.7092 14.92 13.3572 14.288 13.1012 13.568C12.8452 12.848 12.7172 12.08 12.7172 11.264C12.7172 10.448 12.8452 9.68 13.1012 8.96C13.3572 8.24 13.7092 7.616 14.1572 7.088C14.6052 6.544 15.1252 6.12 15.7172 5.816C16.3252 5.496 16.9732 5.336 17.6612 5.336C18.3332 5.336 18.9172 5.432 19.4132 5.624C19.9092 5.8 20.3252 6.056 20.6612 6.392C21.0132 6.728 21.2932 7.128 21.5012 7.592C21.7092 8.056 21.8612 8.56 21.9572 9.104H14.0132L13.9652 9.296C13.8692 9.968 13.8532 10.648 13.9172 11.336C13.9972 12.024 14.1492 12.648 14.3732 13.208C14.5492 13.704 14.7812 14.168 15.0692 14.6C15.3572 15.016 15.6772 15.384 16.0292 15.704C16.3972 16.008 16.7972 16.248 17.2292 16.424C17.6612 16.6 18.1092 16.688 18.5732 16.688C18.8932 16.688 19.1812 16.656 19.4372 16.592L19.6052 16.52C20.3412 16.248 20.9332 15.792 21.3812 15.152C21.8292 14.496 22.2292 13.768 22.5812 12.968C22.9332 12.152 23.2692 11.312 23.5892 10.448C23.9252 9.584 24.3252 8.8 24.7892 8.096C25.2692 7.376 25.8612 6.784 26.5652 6.32C27.2692 5.856 28.1732 5.624 29.2772 5.624C30.1732 5.624 30.8612 5.808 31.3412 6.176C31.8212 6.544 32.1732 7.008 32.3972 7.568C32.6212 8.128 32.7492 8.744 32.7812 9.416C32.8132 10.072 32.8292 10.696 32.8292 11.288V15.392C32.8452 15.712 32.8772 16.008 32.9252 16.28C32.9892 16.536 33.1412 16.664 33.3812 16.664C33.5412 16.664 33.6692 16.632 33.7652 16.568C33.8772 16.488 33.9652 16.408 34.0292 16.328C34.0932 16.232 34.1492 16.12 34.1972 15.992H34.2212ZM17.5652 5.72C16.5892 5.72 15.8052 6.024 15.2132 6.632C14.6212 7.24 14.2292 8.008 14.0372 8.936H19.4132C20.0052 8.936 20.3652 8.768 20.4932 8.432C20.6212 8.096 20.5812 7.728 20.3732 7.328C20.1652 6.928 19.8132 6.56 19.3172 6.224C18.8212 5.888 18.2372 5.72 17.5652 5.72ZM29.4932 15.488C29.8932 15.072 30.2212 14.616 30.4772 14.12C30.7332 13.608 30.9332 13.08 31.0772 12.536C31.2372 11.976 31.3412 11.416 31.3892 10.856C31.4532 10.28 31.4852 9.712 31.4852 9.152C31.4852 9.168 31.4452 9.24 31.3652 9.368C31.2852 9.496 31.1492 9.648 30.9572 9.824C30.7812 10 30.5412 10.184 30.2372 10.376C29.9332 10.568 29.5492 10.744 29.0852 10.904C28.6532 11.048 28.2212 11.208 27.7892 11.384C27.3732 11.56 26.9892 11.784 26.6372 12.056C26.1572 12.44 25.7972 12.904 25.5572 13.448C25.3172 13.992 25.2852 14.552 25.4612 15.128C25.5732 15.512 25.8052 15.84 26.1572 16.112C26.5252 16.368 26.9252 16.496 27.3572 16.496C27.8852 16.496 28.2932 16.408 28.5812 16.232C28.8852 16.056 29.1892 15.808 29.4932 15.488ZM45.8031 15.968C45.7391 16.32 45.5711 16.584 45.2991 16.76C45.0271 16.92 44.7311 17 44.4111 17C44.2191 17 44.0591 16.968 43.9311 16.904C43.9151 16.904 43.8991 16.896 43.8831 16.88L43.7391 16.808C43.4511 16.616 43.2671 16.36 43.1871 16.04C43.1071 15.72 43.0671 15.424 43.0671 15.152V14.936C42.9711 15.128 42.8351 15.344 42.6591 15.584C42.4831 15.808 42.2591 16.032 41.9871 16.256C41.7151 16.464 41.3871 16.64 41.0031 16.784C40.6351 16.928 40.2031 17 39.7071 17C39.1471 17 38.5391 16.888 37.8831 16.664C37.2431 16.424 36.6991 16.048 36.2511 15.536C35.8511 15.072 35.5631 14.504 35.3871 13.832C35.2271 13.144 35.1471 12.32 35.1471 11.36V7.16C35.1471 6.84 35.1151 6.552 35.0511 6.296C34.9871 6.024 34.8351 5.888 34.5951 5.888C34.4351 5.888 34.3071 5.928 34.2111 6.008C34.1151 6.072 34.0351 6.144 33.9711 6.224C33.8911 6.32 33.8351 6.432 33.8031 6.56H33.7551C33.8191 6.224 33.9711 5.968 34.2111 5.792C34.4671 5.616 34.7551 5.528 35.0751 5.528C35.5551 5.528 35.9071 5.704 36.1311 6.056C36.3711 6.408 36.4911 6.808 36.4911 7.256V11.36C36.4911 11.952 36.5391 12.544 36.6351 13.136C36.7311 13.728 36.8991 14.264 37.1391 14.744C37.3791 15.208 37.7071 15.6 38.1231 15.92C38.5391 16.224 39.0671 16.4 39.7071 16.448C40.1711 16.48 40.5791 16.44 40.9311 16.328C41.2831 16.216 41.5951 16.056 41.8671 15.848C42.1391 15.624 42.3711 15.368 42.5631 15.08C42.7551 14.792 42.9231 14.488 43.0671 14.168V7.472C43.0671 7.136 43.0191 6.888 42.9231 6.728C42.8431 6.568 42.7551 6.456 42.6591 6.392C42.5471 6.328 42.4191 6.304 42.2751 6.32V6.176L44.4111 5.552V15.392C44.4111 15.616 44.4271 15.832 44.4591 16.04C44.4911 16.248 44.5551 16.408 44.6511 16.52C44.7311 16.616 44.8351 16.664 44.9631 16.664C45.1231 16.664 45.2511 16.632 45.3471 16.568C45.4431 16.488 45.5231 16.4 45.5871 16.304C45.6671 16.208 45.7231 16.096 45.7551 15.968H45.8031ZM49.9969 15.992C49.9329 16.328 49.7649 16.584 49.4929 16.76C49.2209 16.92 48.9249 17 48.6049 17C48.1409 17 47.7969 16.824 47.5729 16.472C47.3489 16.104 47.2369 15.704 47.2369 15.272V5.72H46.1569V5.552C46.5409 5.488 46.8929 5.352 47.2129 5.144C47.4849 4.968 47.7409 4.712 47.9809 4.376C48.2369 4.04 48.4049 3.568 48.4849 2.96H48.6049V5.552H49.7569V5.72H48.6049V15.392C48.6049 15.712 48.6289 16.008 48.6769 16.28C48.7409 16.536 48.9009 16.664 49.1569 16.664C49.3169 16.664 49.4449 16.632 49.5409 16.568C49.6369 16.488 49.7169 16.408 49.7809 16.328C49.8449 16.232 49.9009 16.12 49.9489 15.992H49.9969ZM60.3278 5.624C60.4398 5.608 60.5518 5.6 60.6638 5.6C60.7918 5.6 60.9038 5.592 60.9998 5.576C61.1118 5.576 61.2238 5.568 61.3358 5.552V5.624C61.1598 5.656 60.9918 5.72 60.8318 5.816C60.6878 5.896 60.5358 6.016 60.3758 6.176C60.2158 6.336 60.0718 6.552 59.9438 6.824C59.7838 7.176 59.5678 7.664 59.2958 8.288C59.0398 8.896 58.7438 9.576 58.4078 10.328C58.0878 11.08 57.7518 11.856 57.3997 12.656C57.0638 13.456 56.7278 14.224 56.3918 14.96C56.0718 15.68 55.7758 16.328 55.5038 16.904C55.2478 17.48 55.0398 17.912 54.8798 18.2C54.7518 18.488 54.5678 18.84 54.3278 19.256C54.0878 19.672 53.8158 20.064 53.5117 20.432C53.2238 20.816 52.9038 21.144 52.5518 21.416C52.1998 21.688 51.8478 21.824 51.4958 21.824C51.1918 21.824 50.9358 21.744 50.7278 21.584C50.4878 21.408 50.3277 21.168 50.2477 20.864C50.1677 20.576 50.1677 20.288 50.2477 20C50.3438 19.664 50.5358 19.36 50.8238 19.088C51.2078 18.768 51.6478 18.536 52.1438 18.392C53.0078 18.104 53.7038 17.776 54.2318 17.408C54.7598 17.056 55.1598 16.544 55.4318 15.872C54.8718 14.592 54.3278 13.368 53.7998 12.2C53.5758 11.688 53.3438 11.168 53.1038 10.64C52.8798 10.112 52.6558 9.6 52.4318 9.104C52.2078 8.608 51.9998 8.144 51.8078 7.712C51.6158 7.264 51.4478 6.88 51.3038 6.56C51.2238 6.336 51.1278 6.168 51.0158 6.056C50.9038 5.944 50.7998 5.848 50.7038 5.768C50.5918 5.704 50.4798 5.656 50.3678 5.624V5.552L51.0878 5.6C51.2158 5.616 51.3438 5.624 51.4718 5.624C51.5998 5.624 51.7038 5.624 51.7838 5.624C51.8478 5.624 51.9358 5.624 52.0478 5.624C52.1598 5.624 52.2798 5.616 52.4078 5.6C52.5038 5.584 52.5918 5.576 52.6718 5.576C52.7678 5.576 52.8558 5.576 52.9358 5.576L53.1518 5.552V5.624C53.0078 5.64 52.8878 5.68 52.7918 5.744C52.7118 5.808 52.6638 5.912 52.6478 6.056C52.6318 6.184 52.6798 6.376 52.7918 6.632C52.7918 6.632 52.8398 6.744 52.9358 6.968C53.0478 7.192 53.1838 7.488 53.3438 7.856C53.5038 8.208 53.6798 8.616 53.8717 9.08C54.0798 9.544 54.2878 10.016 54.4958 10.496C55.0078 11.616 55.5758 12.888 56.1998 14.312L59.5358 6.728C59.6478 6.488 59.6558 6.296 59.5598 6.152C59.4798 6.008 59.3598 5.896 59.1998 5.816C59.0238 5.736 58.8078 5.672 58.5518 5.624V5.552C58.7278 5.568 58.8958 5.576 59.0558 5.576C59.1838 5.592 59.3198 5.608 59.4638 5.624C59.6238 5.624 59.7598 5.624 59.8718 5.624H60.3278ZM53.9678 18.488C54.0958 18.312 54.2158 18.128 54.3278 17.936C54.4398 17.76 54.5518 17.576 54.6638 17.384C54.4238 17.576 54.1598 17.736 53.8717 17.864C53.5998 18.008 53.3278 18.136 53.0558 18.248C52.7998 18.36 52.5598 18.472 52.3358 18.584C52.1118 18.696 51.9278 18.808 51.7838 18.92C51.5278 19.144 51.3678 19.336 51.3038 19.496C51.2398 19.672 51.2238 19.816 51.2558 19.928C51.2878 20.056 51.3678 20.168 51.4958 20.264C51.7198 20.392 52.0558 20.32 52.5038 20.048C52.9678 19.776 53.4558 19.256 53.9678 18.488ZM74.3685 4.784C74.3685 5.168 74.3045 5.496 74.1765 5.768C74.0485 6.024 73.8885 6.232 73.6965 6.392C73.5205 6.552 73.3205 6.672 73.0965 6.752C72.8885 6.832 72.6885 6.888 72.4965 6.92C72.6725 6.952 72.8645 7 73.0725 7.064C73.2805 7.128 73.4805 7.24 73.6725 7.4C73.8645 7.56 74.0245 7.776 74.1525 8.048C74.2805 8.304 74.3445 8.64 74.3445 9.056C74.3445 9.072 74.3445 9.176 74.3445 9.368C74.3445 9.56 74.3445 9.816 74.3445 10.136C74.3445 10.44 74.3445 10.792 74.3445 11.192C74.3605 11.576 74.3685 11.976 74.3685 12.392C74.3685 13.352 74.3685 14.432 74.3685 15.632C74.3685 15.968 74.4085 16.224 74.4885 16.4C74.5845 16.56 74.6885 16.68 74.8005 16.76C74.9125 16.856 75.0485 16.904 75.2085 16.904V17C75.0005 16.984 74.8005 16.968 74.6085 16.952C74.4325 16.936 74.2645 16.928 74.1045 16.928C73.9445 16.912 73.8165 16.904 73.7205 16.904C73.6245 16.904 73.4885 16.912 73.3125 16.928C73.1525 16.928 72.9845 16.936 72.8085 16.952C72.6165 16.968 72.4085 16.984 72.1845 17V16.904C72.3445 16.904 72.4805 16.864 72.5925 16.784C72.7045 16.704 72.8005 16.576 72.8805 16.4C72.9765 16.224 73.0245 15.976 73.0245 15.656L73.0005 9.056C73.0005 8.688 72.9605 8.36 72.8805 8.072C72.8165 7.832 72.7125 7.616 72.5685 7.424C72.4245 7.216 72.2085 7.112 71.9205 7.112H65.1285C64.8565 7.112 64.6405 7.216 64.4805 7.424C64.3365 7.632 64.2325 7.856 64.1685 8.096C64.0885 8.384 64.0485 8.704 64.0485 9.056V15.632C64.0485 15.968 64.0885 16.224 64.1685 16.4C64.2645 16.56 64.3685 16.68 64.4805 16.76C64.5925 16.856 64.7285 16.904 64.8885 16.904V17C64.6805 16.984 64.4805 16.968 64.2885 16.952C64.1285 16.936 63.9605 16.928 63.7845 16.928C63.6245 16.912 63.4965 16.904 63.4005 16.904C63.3045 16.904 63.1685 16.912 62.9925 16.928C62.8325 16.928 62.6645 16.936 62.4885 16.952C62.2965 16.968 62.0885 16.984 61.8645 17V16.904C62.0245 16.904 62.1685 16.864 62.2965 16.784C62.3925 16.704 62.4805 16.576 62.5605 16.4C62.6565 16.224 62.7045 15.976 62.7045 15.656V8.936C62.7205 8.568 62.7925 8.264 62.9205 8.024C63.0485 7.784 63.2005 7.584 63.3765 7.424C63.5685 7.264 63.7685 7.152 63.9765 7.088C64.1845 7.008 64.3765 6.952 64.5525 6.92C64.3765 6.888 64.1765 6.832 63.9525 6.752C63.7445 6.656 63.5445 6.528 63.3525 6.368C63.1765 6.208 63.0245 6 62.8965 5.744C62.7685 5.488 62.7045 5.168 62.7045 4.784V2.288C62.7045 1.952 62.6565 1.704 62.5605 1.544C62.4805 1.368 62.3925 1.24 62.2965 1.16C62.1685 1.08 62.0245 1.04 61.8645 1.04V0.943999C62.0885 0.959999 62.2965 0.975999 62.4885 0.991999C62.6645 1.008 62.8325 1.024 62.9925 1.04C63.1685 1.04 63.3045 1.04 63.4005 1.04C63.4965 1.04 63.6245 1.04 63.7845 1.04C63.9605 1.024 64.1285 1.008 64.2885 0.991999C64.4805 0.975999 64.6805 0.959999 64.8885 0.943999V1.04C64.7285 1.04 64.5925 1.08 64.4805 1.16C64.3685 1.24 64.2645 1.368 64.1685 1.544C64.0885 1.72 64.0485 1.976 64.0485 2.312V4.856C64.0485 4.936 64.0565 5.08 64.0725 5.288C64.1045 5.496 64.1525 5.704 64.2165 5.912C64.2965 6.12 64.4085 6.304 64.5525 6.464C64.6965 6.624 64.8965 6.704 65.1525 6.704H71.9445C72.1845 6.704 72.3765 6.624 72.5205 6.464C72.6645 6.304 72.7685 6.12 72.8325 5.912C72.9125 5.704 72.9605 5.504 72.9765 5.312C73.0085 5.104 73.0245 4.952 73.0245 4.856V2.288C73.0245 1.952 72.9765 1.704 72.8805 1.544C72.8005 1.368 72.7045 1.24 72.5925 1.16C72.4805 1.08 72.3445 1.04 72.1845 1.04V0.943999C72.4085 0.959999 72.6165 0.975999 72.8085 0.991999C72.9845 1.008 73.1525 1.024 73.3125 1.04C73.4885 1.04 73.6245 1.04 73.7205 1.04C73.8165 1.04 73.9445 1.04 74.1045 1.04C74.2645 1.024 74.4325 1.008 74.6085 0.991999C74.8005 0.975999 75.0005 0.959999 75.2085 0.943999V1.04C75.0485 1.04 74.9125 1.08 74.8005 1.16C74.6885 1.24 74.5845 1.368 74.4885 1.544C74.4085 1.72 74.3685 1.976 74.3685 2.312V4.784ZM89.214 1.04C89.342 1.024 89.47 1.016 89.598 1.016C89.742 0.999999 89.878 0.983999 90.006 0.967999C90.134 0.967999 90.27 0.959999 90.414 0.943999V1.04C90.19 1.04 89.99 1.072 89.814 1.136C89.654 1.216 89.51 1.336 89.382 1.496C89.254 1.64 89.19 1.872 89.19 2.192C89.19 2.608 89.19 3.112 89.19 3.704C89.19 4.28 89.19 4.888 89.19 5.528C89.19 6.168 89.182 6.816 89.166 7.472C89.166 8.128 89.166 8.736 89.166 9.296C89.166 9.856 89.166 10.344 89.166 10.76C89.166 11.176 89.166 11.464 89.166 11.624C89.166 12.328 89.086 13.016 88.926 13.688C88.766 14.36 88.478 14.96 88.062 15.488C87.646 16.016 87.062 16.44 86.31 16.76C85.574 17.08 84.614 17.24 83.43 17.24C82.182 17.24 81.142 17.08 80.31 16.76C79.494 16.44 78.846 16.016 78.366 15.488C77.886 14.96 77.55 14.36 77.358 13.688C77.166 13.016 77.07 12.328 77.07 11.624V2.288C77.07 1.952 77.022 1.704 76.926 1.544C76.846 1.368 76.758 1.24 76.662 1.16C76.534 1.08 76.39 1.04 76.23 1.04V0.943999C76.454 0.959999 76.662 0.975999 76.854 0.991999C77.03 1.008 77.198 1.024 77.358 1.04C77.534 1.04 77.67 1.04 77.766 1.04C77.862 1.04 77.99 1.04 78.15 1.04C78.326 1.024 78.494 1.008 78.654 0.991999C78.846 0.975999 79.046 0.959999 79.254 0.943999V1.04C79.094 1.04 78.958 1.08 78.846 1.16C78.734 1.24 78.63 1.368 78.534 1.544C78.454 1.72 78.414 1.976 78.414 2.312V11.624C78.414 12.616 78.566 13.44 78.87 14.096C79.19 14.752 79.598 15.28 80.094 15.68C80.59 16.08 81.134 16.36 81.726 16.52C82.318 16.68 82.886 16.76 83.43 16.76C84.006 16.76 84.598 16.712 85.206 16.616C85.83 16.504 86.39 16.272 86.886 15.92C87.398 15.552 87.814 15.032 88.134 14.36C88.47 13.688 88.638 12.776 88.638 11.624V2.168C88.638 1.848 88.574 1.616 88.446 1.472C88.318 1.328 88.174 1.216 88.014 1.136C87.838 1.072 87.63 1.04 87.39 1.04V0.943999C87.534 0.959999 87.686 0.975999 87.846 0.991999C87.974 0.991999 88.102 0.999999 88.23 1.016C88.374 1.016 88.51 1.024 88.638 1.04H89.214ZM98.454 8.744C99.014 8.808 99.534 8.968 100.014 9.224C100.494 9.464 100.91 9.768 101.262 10.136C101.63 10.488 101.91 10.896 102.102 11.36C102.31 11.824 102.414 12.32 102.414 12.848C102.414 13.424 102.286 13.968 102.03 14.48C101.79 14.976 101.462 15.416 101.046 15.8C100.63 16.168 100.134 16.464 99.558 16.688C98.998 16.896 98.398 17 97.758 17H91.278V16.904C91.438 16.904 91.582 16.864 91.71 16.784C91.806 16.704 91.894 16.576 91.974 16.4C92.07 16.224 92.118 15.976 92.118 15.656V12.224C92.118 11.424 92.254 10.816 92.526 10.4C92.798 9.968 93.11 9.64 93.462 9.416L93.774 9.248C94.126 9.088 94.494 9 94.878 8.984C94.526 8.968 94.158 8.88 93.774 8.72L93.462 8.552C93.11 8.328 92.798 8 92.526 7.568C92.254 7.136 92.118 6.52 92.118 5.72V2.288C92.118 1.952 92.07 1.696 91.974 1.52C91.894 1.344 91.806 1.216 91.71 1.136C91.582 1.056 91.438 1.016 91.278 1.016V0.943999C92.35 0.943999 93.31 0.935999 94.158 0.92H97.11C97.67 0.92 98.19 1.024 98.67 1.232C99.166 1.44 99.598 1.728 99.966 2.096C100.334 2.464 100.622 2.896 100.83 3.392C101.038 3.872 101.142 4.392 101.142 4.952C101.142 5.816 100.894 6.592 100.398 7.28C99.918 7.968 99.27 8.456 98.454 8.744ZM93.462 5.912C93.462 6.072 93.478 6.312 93.51 6.632C93.558 6.952 93.63 7.264 93.726 7.568C93.838 7.872 93.998 8.144 94.206 8.384C94.43 8.608 94.726 8.72 95.094 8.72H97.302C97.574 8.688 97.806 8.632 97.998 8.552C98.414 8.408 98.766 8.176 99.054 7.856C99.342 7.536 99.558 7.176 99.702 6.776C99.862 6.36 99.934 5.912 99.918 5.432C99.918 4.952 99.83 4.472 99.654 3.992C99.398 3.304 98.966 2.72 98.358 2.24C97.766 1.744 96.934 1.496 95.862 1.496H93.462V5.912ZM98.79 16.568C99.254 16.424 99.654 16.192 99.99 15.872C100.326 15.536 100.582 15.16 100.758 14.744C100.934 14.312 101.022 13.848 101.022 13.352C101.022 12.856 100.918 12.36 100.71 11.864C100.39 11.128 99.918 10.528 99.294 10.064C98.686 9.6 98.022 9.328 97.302 9.248H95.094C94.742 9.248 94.454 9.36 94.23 9.584C94.022 9.808 93.862 10.072 93.75 10.376C93.638 10.68 93.558 10.992 93.51 11.312C93.478 11.616 93.462 11.856 93.462 12.032V15.656C93.462 15.688 93.478 15.768 93.51 15.896C93.542 16.008 93.614 16.128 93.726 16.256C93.838 16.384 94.006 16.504 94.23 16.616C94.454 16.712 94.758 16.76 95.142 16.76H97.758C97.934 16.744 98.102 16.728 98.262 16.712C98.438 16.68 98.614 16.632 98.79 16.568Z" fill="#2F1167"/>
</svg>
