<svg width="73" height="28" viewBox="0 0 73 28" fill="none" xmlns="http://www.w3.org/2000/svg">
<path fill-rule="evenodd" clip-rule="evenodd" d="M71.0887 17.2378C70.3392 17.6222 57.3177 21.804 53.8458 26.0074C52.5713 27.5529 51.176 27.6336 51.4678 26.163C51.6918 25.0731 50.6965 20.5899 50.5646 19.8617C50.5288 19.8638 41.4285 23.2622 34.0479 19.4717C33.7702 19.3262 32.8989 19.4664 31.9475 19.7728C24.4346 22.3793 13.2254 19.4207 3.8802 12.3876C3.05378 11.7534 1.8214 10.9274 1.15258 10.5353C-1.4869 8.96512 0.940981 5.01963 6.28238 8.92819C13.6279 14.2822 19.259 16.6843 25.6032 17.1427C29.3171 17.4303 29.475 17.3673 28.1314 16.1708C22.057 10.7611 27.7693 0.612945 35.9655 0.820519C42.148 0.965182 45.3208 8.33758 39.4224 14.9608C38.5629 15.9259 37.9098 16.7354 37.9666 16.786C39.2871 17.8941 47.3967 18.4657 49.8617 17.641C50.3374 17.4878 49.9819 12.8958 49.4393 12.5144C48.5035 11.8506 50.0545 9.4994 51.4707 9.47127C51.8116 9.46947 53.7788 9.96583 55.8257 10.6012C60.3403 12.009 63.3638 12.4621 68.0242 13.2872C72.0344 14.0422 74.6973 15.3957 71.0887 17.2378ZM32.708 14.3085C35.255 15.8302 38.5516 14.4907 39.3371 11.6274C40.4183 7.67013 38.0552 5.29422 35.2824 4.52144C27.8013 2.40587 26.6656 10.6918 32.708 14.3085Z" fill="#ffffff"/>
</svg>
